<?xml version="1.0" encoding="UTF-8" standalone="no"?>
<!-- Created with Inkscape (http://www.inkscape.org/) -->
<svg xmlns:dc="http://purl.org/dc/elements/1.1/" xmlns:cc="http://web.resource.org/cc/" xmlns:rdf="http://www.w3.org/1999/02/22-rdf-syntax-ns#" xmlns:svg="http://www.w3.org/2000/svg" xmlns="http://www.w3.org/2000/svg" xmlns:sodipodi="http://sodipodi.sourceforge.net/DTD/sodipodi-0.dtd" xmlns:inkscape="http://www.inkscape.org/namespaces/inkscape" version="1.0" width="371.08551" height="401.44733" viewBox="0 0 8.5 11" id="svg2" xml:space="preserve" sodipodi:version="0.32" inkscape:version="0.44+devel" sodipodi:docname="lakeside_snowflake2.svg" inkscape:output_extension="org.inkscape.output.svg.inkscape" sodipodi:docbase="C:\Documents and Settings\Molumen\Desktop" sodipodi:modified="true"><metadata id="metadata21"><rdf:RDF><cc:Work rdf:about=""><dc:format>image/svg+xml</dc:format><dc:type rdf:resource="http://purl.org/dc/dcmitype/StillImage"/><dc:title>snowfalke</dc:title><dc:date>29 11 2006</dc:date><dc:creator><cc:Agent><dc:title/></cc:Agent></dc:creator><cc:license rdf:resource="http://web.resource.org/cc/PublicDomain"/><dc:description/><dc:subject><rdf:Bag><rdf:li>snowflake</rdf:li><rdf:li>snow</rdf:li><rdf:li>winter</rdf:li><rdf:li>flake</rdf:li><rdf:li>cold</rdf:li><rdf:li>water</rdf:li><rdf:li>ice</rdf:li></rdf:Bag></dc:subject></cc:Work><cc:License rdf:about="http://web.resource.org/cc/PublicDomain"><cc:permits rdf:resource="http://web.resource.org/cc/Reproduction"/><cc:permits rdf:resource="http://web.resource.org/cc/Distribution"/><cc:permits rdf:resource="http://web.resource.org/cc/DerivativeWorks"/></cc:License></rdf:RDF></metadata><sodipodi:namedview inkscape:window-height="891" inkscape:window-width="1108" inkscape:pageshadow="2" inkscape:pageopacity="0.0" guidetolerance="10.0" gridtolerance="10.0" objecttolerance="10.0" borderopacity="1.0" bordercolor="#666666" pagecolor="#ffffff" id="base" inkscape:zoom="0.93910203" inkscape:cx="208.57831" inkscape:cy="181.08608" inkscape:window-x="147" inkscape:window-y="174" inkscape:current-layer="svg2"/>
 <defs id="defs4">
  <style type="text/css" id="style6"/>
   <clipPath id="id0">
    <rect width="1.41321" height="1.51754" x="3.54339" y="4.74123" id="rect9"/>
   </clipPath>
 
  
  
  
 
   
   
   
   
   
   
   
   
   
   
   
   
  </defs>
 <path id="path15" style="fill: rgb(192, 192, 192);" d="M 3.69895,5.1092 L 3.717387,5.1714992 L 3.747387,5.1878535 L 3.784261,5.120137 L 3.830513,5.1452472 L 3.793639,5.2130661 L 3.8447847,5.2408811 L 3.8829107,5.1708732 L 3.9328044,5.1980661 L 3.8946824,5.268074 L 3.9525997,5.2995346 L 3.9912454,5.2283811 L 4.0289541,5.2489047 L 3.9903084,5.3200582 L 4.0203084,5.3363102 L 4.0333281,5.3838181 L 3.9858281,5.3996527 L 3.9558281,5.3834007 L 3.9185368,5.4519479 L 3.8808281,5.4314282 L 3.9181194,5.362877 L 3.8603044,5.3314124 L 3.8218674,5.4018376 L 3.7719698,5.374751 L 3.8103044,5.3042234 L 3.7591587,5.2764084 L 3.7221784,5.3443336 L 3.6759264,5.3192234 L 3.7129067,5.2511958 L 3.683324,5.2351525 L 3.6203004,5.2536958 L 3.5615524,5.1313888 L 3.69895,5.1092 z " transform="matrix(7.0593, 0, 0, 7.0593, -25.7781, -33.3041)"/><path sodipodi:nodetypes="ccccccccccccccccccccccccccccccccc" id="1" style="fill: rgb(192, 192, 192);" d="M 4.31552,4.86031 L 4.2694806,4.9062549 L 4.2694806,4.9404242 L 4.3466696,4.9404242 L 4.3466696,4.9930344 L 4.2694806,4.9930344 L 4.2694806,5.0513769 L 4.3491696,5.0513769 L 4.3491696,5.1081525 L 4.2694806,5.1081525 L 4.2694806,5.1741013 L 4.3504176,5.1741013 L 4.3504176,5.2170226 L 4.2694806,5.2170226 L 4.2694806,5.2510895 L 4.2340633,5.2852588 L 4.197394,5.2510895 L 4.197394,5.2170226 L 4.1193743,5.2170226 L 4.1193743,5.1741013 L 4.197394,5.1741013 L 4.197394,5.1081525 L 4.1171853,5.1081525 L 4.1171853,5.0513769 L 4.197394,5.0513769 L 4.197394,4.9930344 L 4.1201027,4.9930344 L 4.1201027,4.9404242 L 4.197394,4.9404242 L 4.197394,4.9067746 L 4.1509373,4.86031 L 4.2303113,4.750196 L 4.31552,4.86031 z " transform="matrix(7.0593, 0, 0, 7.0593, -25.7781, -33.3041)"/><path sodipodi:nodetypes="ccccccccccccccccccccccccccccccccc" id="12" style="fill: rgb(192, 192, 192);" d="M 4.86251,5.2613 L 4.7994864,5.2427567 L 4.7699037,5.2588 L 4.806884,5.3267252 L 4.760632,5.3519339 L 4.7236517,5.2839063 L 4.672506,5.3118276 L 4.7108406,5.3823552 L 4.660943,5.4094418 L 4.6226123,5.3389142 L 4.564695,5.3704811 L 4.6019863,5.4390283 L 4.5642776,5.4595519 L 4.5269863,5.3908984 L 4.4969824,5.4072527 L 4.4494824,5.3913157 L 4.4626084,5.3439141 L 4.4926084,5.3275558 L 4.4538604,5.2565086 L 4.4915691,5.235985 L 4.5302148,5.3071385 L 4.5881321,5.2755716 L 4.5500061,5.2055637 L 4.6000061,5.1784771 L 4.6380258,5.248485 L 4.6892778,5.2205637 L 4.6524038,5.1528472 L 4.6985495,5.1276385 L 4.7354235,5.1954574 L 4.7654235,5.1791031 L 4.7838644,5.1166976 L 4.9212624,5.1389929 L 4.86251,5.2613 z " transform="matrix(7.0593, 0, 0, 7.0593, -25.7781, -33.3041)"/><path sodipodi:nodetypes="ccccccccccccccccccccccccccccccccc" id="123" style="fill: rgb(192, 192, 192);" d="M 4.80022,5.88835 L 4.784594,5.8251138 L 4.7554247,5.8075075 L 4.715531,5.8735547 L 4.6704247,5.8463657 L 4.7103223,5.7803145 L 4.6604247,5.7501019 L 4.619279,5.8183421 L 4.5706333,5.7889641 L 4.611779,5.7207239 L 4.5554247,5.686657 L 4.5135467,5.7559365 L 4.4768813,5.7337475 L 4.518653,5.664468 L 4.4894837,5.6468617 L 4.4785467,5.5988341 L 4.526779,5.5850821 L 4.5559444,5.6027947 L 4.5963617,5.5359089 L 4.6330271,5.5581018 L 4.5927161,5.6249837 L 4.6490704,5.6590506 L 4.6906334,5.5902908 L 4.7392791,5.6196727 L 4.6977161,5.6884286 L 4.7476137,5.7185388 L 4.7876137,5.6523813 L 4.8326137,5.6795742 L 4.7926137,5.7457277 L 4.821468,5.7632316 L 4.8853223,5.747393 L 4.9384483,5.872306 L 4.80022,5.88835 z " transform="matrix(7.0593, 0, 0, 7.0593, -25.7781, -33.3041)"/><path sodipodi:nodetypes="ccccccccccccccccccccccccccccccccc" id="1234" style="fill: rgb(192, 192, 192);" d="M 4.1775,6.12963 L 4.2239567,6.0831654 L 4.2239567,6.0495158 L 4.1466654,6.0495158 L 4.1466654,5.9969056 L 4.2239567,5.9969056 L 4.2239567,5.9385631 L 4.143748,5.9385631 L 4.143748,5.8817875 L 4.2239567,5.8817875 L 4.2239567,5.8158426 L 4.145937,5.8158426 L 4.145937,5.7729174 L 4.2239567,5.7729174 L 4.2239567,5.7387481 L 4.260626,5.7046812 L 4.2960433,5.7387481 L 4.2960433,5.7729174 L 4.3769803,5.7729174 L 4.3769803,5.8158426 L 4.2960433,5.8158426 L 4.2960433,5.8817875 L 4.3757323,5.8817875 L 4.3757323,5.9385631 L 4.2960433,5.9385631 L 4.2960433,5.9969056 L 4.3732323,5.9969056 L 4.3732323,6.0495158 L 4.2960433,6.0495158 L 4.2960433,6.0836851 L 4.3420827,6.12963 L 4.256874,6.239748 L 4.1775,6.12963 z " transform="matrix(7.0593, 0, 0, 7.0593, -25.7781, -33.3041)"/><path sodipodi:nodetypes="ccccccccccccccccccccccccccccccccc" id="12345" style="fill: rgb(192, 192, 192);" d="M 3.6401,5.77834 L 3.7053087,5.7871983 L 3.7320804,5.7668833 L 3.6853087,5.7052061 L 3.7271827,5.6734344 L 3.7739544,5.7350013 L 3.820415,5.6997887 L 3.7718717,5.6358241 L 3.8170804,5.6014461 L 3.8656237,5.6654107 L 3.9181237,5.6255091 L 3.8708324,5.5633162 L 3.9049978,5.5373753 L 3.9522891,5.5995682 L 3.9794781,5.5788399 L 4.0288521,5.5873792 L 4.0230214,5.6362414 L 3.9958324,5.6569737 L 4.0447891,5.721458 L 4.0107261,5.7473989 L 3.9616631,5.6829146 L 3.9092694,5.7228122 L 3.9574977,5.786261 L 3.9121867,5.820639 L 3.8639544,5.7571941 L 3.8176001,5.7924067 L 3.8642694,5.8538713 L 3.8223914,5.8857493 L 3.775726,5.8242847 L 3.748537,5.8449107 L 3.7396827,5.9093989 L 3.6005137,5.9081509 L 3.6401,5.77834 z " transform="matrix(7.0593, 0, 0, 7.0593, -25.7781, -33.3041)"/><path style="fill: rgb(192, 192, 192);" d="M 134.1875 131.40625 L 138.0625 175.75 L 178.5625 197.21875 L 178.5625 150.40625 L 134.1875 131.40625 z M 228.34375 132.0625 L 184 151.0625 L 184 197.90625 L 227.15625 173.71875 L 228.34375 132.0625 z M 229.21875 177.1875 L 188.75 201.125 L 234.15625 224 L 269.6875 196.1875 L 229.21875 177.1875 z M 135.28125 178.21875 L 94.78125 201.125 L 115.09375 210.90625 L 140.53125 224 L 178.5625 201.125 L 135.28125 178.21875 z M 184.875 203.5625 L 185.9375 246.84375 L 236.59375 270.78125 L 231.6875 227.84375 L 184.875 203.5625 z M 178.5625 206.03125 L 140.53125 227.84375 L 138.0625 278.5625 L 181 246.84375 L 179.5625 216.28125 L 178.5625 206.03125 z " id="123456" transform="matrix(0.0274009, 0, 0, 0.0274009, -0.83403, 0)"/>
</svg>