<?xml version="1.0" encoding="UTF-8" standalone="no"?>
<!-- Created with Inkscape (http://www.inkscape.org/) -->
<svg
   xmlns:dc="http://purl.org/dc/elements/1.1/"
   xmlns:cc="http://creativecommons.org/ns#"
   xmlns:rdf="http://www.w3.org/1999/02/22-rdf-syntax-ns#"
   xmlns:svg="http://www.w3.org/2000/svg"
   xmlns="http://www.w3.org/2000/svg"
   xmlns:xlink="http://www.w3.org/1999/xlink"
   xmlns:sodipodi="http://sodipodi.sourceforge.net/DTD/sodipodi-0.dtd"
   xmlns:inkscape="http://www.inkscape.org/namespaces/inkscape"
   width="1024"
   height="768"
   id="svg2"
   sodipodi:version="0.32"
   inkscape:version="0.46"
   version="1.0"
   sodipodi:docname="UI Mockup.svg"
   inkscape:output_extension="org.inkscape.output.svg.inkscape">
  <sodipodi:namedview
     id="base"
     pagecolor="#ffffff"
     bordercolor="#666666"
     borderopacity="1.0"
     gridtolerance="10000"
     guidetolerance="10"
     objecttolerance="10"
     inkscape:pageopacity="0.0"
     inkscape:pageshadow="2"
     inkscape:zoom="0.77083333"
     inkscape:cx="512"
     inkscape:cy="384"
     inkscape:document-units="px"
     inkscape:current-layer="layer1"
     showgrid="true"
     inkscape:window-width="1280"
     inkscape:window-height="739"
     inkscape:window-x="0"
     inkscape:window-y="30"
     showguides="true"
     inkscape:guide-bbox="true">
    <inkscape:grid
       empspacing="8"
       spacingy="8px"
       spacingx="8px"
       enabled="true"
       visible="true"
       id="grid2383"
       type="xygrid" />
  </sodipodi:namedview>
  <defs
     id="defs4"><linearGradient
   id="linearGradient3718">
  <stop
     style="stop-color:#f0c700;stop-opacity:1"
     offset="0"
     id="stop3720" />
  <stop
     style="stop-color:#ffe900;stop-opacity:1"
     offset="1"
     id="stop3722" />
</linearGradient>
<linearGradient
   id="linearGradient3201">
  <stop
     id="stop3203"
     offset="0"
     style="stop-color:#1ea0ff;stop-opacity:0" />
  <stop
     id="stop3205"
     offset="1"
     style="stop-color:#006bff;stop-opacity:0" />
</linearGradient>
<linearGradient
   id="linearGradient4211">
  <stop
     style="stop-color:#1ea0ff;stop-opacity:1"
     offset="0"
     id="stop4213" />
  <stop
     style="stop-color:#006bff;stop-opacity:0"
     offset="1"
     id="stop4215" />
</linearGradient>
<linearGradient
   id="linearGradient4205">
  <stop
     style="stop-color:#00478e;stop-opacity:1"
     offset="0"
     id="stop4207" />
  <stop
     style="stop-color:#0d1461;stop-opacity:1"
     offset="1"
     id="stop4209" />
</linearGradient>
<linearGradient
   id="linearGradient3935">
  <stop
     id="stop3937"
     offset="0"
     style="stop-color:#0093ff;stop-opacity:1;" />
  <stop
     id="stop3939"
     offset="1"
     style="stop-color:#0093ff;stop-opacity:0;" />
</linearGradient>
<linearGradient
   id="linearGradient3927">
  <stop
     id="stop3929"
     offset="0"
     style="stop-color:#004d86;stop-opacity:1;" />
  <stop
     id="stop3931"
     offset="1"
     style="stop-color:#053d66;stop-opacity:1" />
</linearGradient>
<inkscape:perspective
   id="perspective10"
   inkscape:persp3d-origin="372.04724 : 350.78739 : 1"
   inkscape:vp_z="744.09448 : 526.18109 : 1"
   inkscape:vp_y="0 : 1000 : 0"
   inkscape:vp_x="0 : 526.18109 : 1"
   sodipodi:type="inkscape:persp3d" />
<linearGradient
   gradientUnits="userSpaceOnUse"
   y2="512"
   x2="448"
   y1="400"
   x1="448"
   id="linearGradient3933"
   xlink:href="#linearGradient4205"
   inkscape:collect="always" />
<linearGradient
   y2="440"
   x2="512"
   y1="456"
   x1="408"
   gradientUnits="userSpaceOnUse"
   id="linearGradient3945"
   xlink:href="#linearGradient4211"
   inkscape:collect="always" />
<linearGradient
   y2="512"
   x2="448"
   y1="400"
   x1="448"
   gradientUnits="userSpaceOnUse"
   id="linearGradient4051"
   xlink:href="#linearGradient3927"
   inkscape:collect="always" />
<linearGradient
   y2="512"
   x2="448"
   y1="400"
   x1="448"
   gradientUnits="userSpaceOnUse"
   id="linearGradient4270"
   xlink:href="#linearGradient4205"
   inkscape:collect="always" />
<linearGradient
   y2="440"
   x2="512"
   y1="456"
   x1="408"
   gradientUnits="userSpaceOnUse"
   id="linearGradient4272"
   xlink:href="#linearGradient4211"
   inkscape:collect="always" />
<linearGradient
   gradientTransform="translate(63.59375,-190.78125)"
   y2="512"
   x2="448"
   y1="400"
   x1="448"
   gradientUnits="userSpaceOnUse"
   id="linearGradient2419"
   xlink:href="#linearGradient4205"
   inkscape:collect="always" />
<linearGradient
   gradientTransform="translate(63.59375,-190.78125)"
   y2="462.78125"
   x2="496.40625"
   y1="462.78125"
   x1="424.40625"
   gradientUnits="userSpaceOnUse"
   id="linearGradient2422"
   xlink:href="#linearGradient4211"
   inkscape:collect="always" />
<linearGradient
   y2="440"
   x2="512"
   y1="456"
   x1="408"
   gradientUnits="userSpaceOnUse"
   id="linearGradient2425"
   xlink:href="#linearGradient4211"
   inkscape:collect="always" />
<linearGradient
   y2="510.78125"
   x2="456.40625"
   y1="406.78125"
   x1="448.40625"
   gradientTransform="translate(63.59375,-190.78125)"
   gradientUnits="userSpaceOnUse"
   id="linearGradient2429"
   xlink:href="#linearGradient4205"
   inkscape:collect="always" />
<filter
   height="1.3623092"
   y="-0.1811546"
   width="1.4495403"
   x="-0.22477017"
   id="filter3275"
   inkscape:collect="always">
  <feGaussianBlur
     id="feGaussianBlur3277"
     stdDeviation="9.189822"
     inkscape:collect="always" />
</filter>
<linearGradient
   y2="512"
   x2="448"
   y1="398.78125"
   x1="448.40625"
   gradientTransform="translate(63.59375,-190.78125)"
   gradientUnits="userSpaceOnUse"
   id="linearGradient3289"
   xlink:href="#linearGradient3927"
   inkscape:collect="always" />
<clipPath
   id="clipPath3291"
   clipPathUnits="userSpaceOnUse">
  <path
     sodipodi:nodetypes="ccccc"
     id="path3293"
     d="M 448,224 L 576,192 L 576,320 L 448,352 L 448,224 z"
     style="fill:url(#linearGradient3295);fill-opacity:1;fill-rule:nonzero;stroke:#000000;stroke-width:2;stroke-linecap:butt;stroke-linejoin:miter;marker:none;marker-start:none;marker-mid:none;marker-end:none;stroke-miterlimit:4.00500011;stroke-dashoffset:0;stroke-opacity:1;visibility:visible;display:inline;overflow:visible;enable-background:accumulate" />
</clipPath>
<linearGradient
   y2="512"
   x2="448"
   y1="398.78125"
   x1="448.40625"
   gradientTransform="translate(63.59375,-190.78125)"
   gradientUnits="userSpaceOnUse"
   id="linearGradient3295"
   xlink:href="#linearGradient3927"
   inkscape:collect="always" />
<filter
   height="1.2633776"
   y="-0.13168879"
   width="1.4060321"
   x="-0.20301605"
   id="filter3894"
   inkscape:collect="always">
  <feGaussianBlur
     id="feGaussianBlur3896"
     stdDeviation="4.0604042"
     inkscape:collect="always" />
</filter>
<linearGradient
   inkscape:collect="always"
   xlink:href="#linearGradient3718"
   id="linearGradient2448"
   gradientUnits="userSpaceOnUse"
   x1="184"
   y1="272"
   x2="200"
   y2="400" />
<filter
   inkscape:collect="always"
   id="filter3336">
  <feGaussianBlur
     inkscape:collect="always"
     stdDeviation="2.0206054"
     id="feGaussianBlur3338" />
</filter>
<linearGradient
   inkscape:collect="always"
   xlink:href="#linearGradient3718"
   id="linearGradient3342"
   gradientUnits="userSpaceOnUse"
   x1="184"
   y1="272"
   x2="200"
   y2="400"
   gradientTransform="translate(-460,0)" />
<clipPath
   clipPathUnits="userSpaceOnUse"
   id="clipPath3381">
  <path
     style="fill:url(#linearGradient3385);fill-opacity:1;fill-rule:nonzero;stroke:#000000;stroke-width:2;stroke-linecap:butt;stroke-linejoin:miter;marker:none;marker-start:none;marker-mid:none;marker-end:none;stroke-miterlimit:4.00500011;stroke-dashoffset:0;stroke-opacity:1;visibility:visible;display:inline;overflow:visible;enable-background:accumulate"
     d="M -332,288 L -268,272 L -204,256 L -204,384 L -268,400 L -332,416 L -332,288 z"
     id="path3383"
     sodipodi:nodetypes="ccccccc" />
</clipPath>
<linearGradient
   inkscape:collect="always"
   xlink:href="#linearGradient3718"
   id="linearGradient3385"
   gradientUnits="userSpaceOnUse"
   gradientTransform="translate(-460,0)"
   x1="184"
   y1="272"
   x2="200"
   y2="400" />
<filter
   inkscape:collect="always"
   id="filter3479"
   x="-0.17136223"
   width="1.3427245"
   y="-0.13708978"
   height="1.2741796">
  <feGaussianBlur
     inkscape:collect="always"
     stdDeviation="9.1393189"
     id="feGaussianBlur3481" />
</filter>
<linearGradient
   inkscape:collect="always"
   xlink:href="#linearGradient4205"
   id="linearGradient3499"
   gradientUnits="userSpaceOnUse"
   gradientTransform="translate(63.59375,-190.78125)"
   x1="448.40625"
   y1="406.78125"
   x2="456.40625"
   y2="510.78125" />
<linearGradient
   inkscape:collect="always"
   xlink:href="#linearGradient4211"
   id="linearGradient3501"
   gradientUnits="userSpaceOnUse"
   gradientTransform="translate(63.59375,-190.78125)"
   x1="424.40625"
   y1="462.78125"
   x2="496.40625"
   y2="462.78125" />
<linearGradient
   inkscape:collect="always"
   xlink:href="#linearGradient4205"
   id="linearGradient3508"
   gradientUnits="userSpaceOnUse"
   gradientTransform="translate(63.59375,-190.78125)"
   x1="448.40625"
   y1="406.78125"
   x2="456.40625"
   y2="510.78125" />
<linearGradient
   inkscape:collect="always"
   xlink:href="#linearGradient4211"
   id="linearGradient3510"
   gradientUnits="userSpaceOnUse"
   gradientTransform="translate(63.59375,-190.78125)"
   x1="424.40625"
   y1="462.78125"
   x2="496.40625"
   y2="462.78125" />
<linearGradient
   inkscape:collect="always"
   xlink:href="#linearGradient4205"
   id="linearGradient3527"
   gradientUnits="userSpaceOnUse"
   gradientTransform="translate(63.59375,-190.78125)"
   x1="448.40625"
   y1="406.78125"
   x2="456.40625"
   y2="510.78125" />
<linearGradient
   inkscape:collect="always"
   xlink:href="#linearGradient4211"
   id="linearGradient3529"
   gradientUnits="userSpaceOnUse"
   gradientTransform="translate(63.59375,-190.78125)"
   x1="424.40625"
   y1="462.78125"
   x2="496.40625"
   y2="462.78125" />
<linearGradient
   inkscape:collect="always"
   xlink:href="#linearGradient3718"
   id="linearGradient3531"
   gradientUnits="userSpaceOnUse"
   x1="184"
   y1="272"
   x2="200"
   y2="400" />

 
  
  
  
 
   
   
   
   
   
   
   
   
   
   
   
   
  <clipPath
   id="id0">
    <rect
   id="rect9"
   y="4.74123"
   x="3.54339"
   height="1.51754"
   width="1.41321" />

   </clipPath>

   <style
   id="style6"
   type="text/css" />

  <inkscape:perspective
   id="perspective2472"
   inkscape:persp3d-origin="185.54276 : 133.81578 : 1"
   inkscape:vp_z="371.08551 : 200.72366 : 1"
   inkscape:vp_y="0 : 1000 : 0"
   inkscape:vp_x="0 : 200.72366 : 1"
   sodipodi:type="inkscape:persp3d" />

 
  
  
  
 
   
   
   
   
   
   
   
   
   
   
   
   
  <clipPath
   id="clipPath2506">
    <rect
   id="rect2508"
   y="4.74123"
   x="3.54339"
   height="1.51754"
   width="1.41321" />

   </clipPath>

   <style
   id="style2504"
   type="text/css" />

  <inkscape:perspective
   id="perspective2501"
   inkscape:persp3d-origin="185.54276 : 133.81578 : 1"
   inkscape:vp_z="371.08551 : 200.72366 : 1"
   inkscape:vp_y="0 : 1000 : 0"
   inkscape:vp_x="0 : 200.72366 : 1"
   sodipodi:type="inkscape:persp3d" />
</defs>
  <metadata
     id="metadata7">
    <rdf:RDF>
      <cc:Work
         rdf:about="">
        <dc:format>image/svg+xml</dc:format>
        <dc:type
           rdf:resource="http://purl.org/dc/dcmitype/StillImage" />
      </cc:Work>
    </rdf:RDF>
  </metadata>
  <g
     id="layer1"
     inkscape:groupmode="layer"
     inkscape:label="Layer 1">
    <path
       sodipodi:nodetypes="ccccc"
       id="path3699"
       d="M 384,48 L 384,0 L 0,0 L 0,144 L 384,48 z"
       style="fill:#ffffff;fill-opacity:1;fill-rule:evenodd;stroke:#000000;stroke-width:1px;stroke-linecap:butt;stroke-linejoin:miter;stroke-opacity:1" />
    <g
       id="g3519"
       transform="translate(-448,-80)">
      <g
         id="g3512">
        <path
           style="fill:url(#linearGradient3527);fill-opacity:1;fill-rule:nonzero;stroke:#000000;stroke-width:2;stroke-linecap:butt;stroke-linejoin:miter;marker:none;marker-start:none;marker-mid:none;marker-end:none;stroke-miterlimit:4.00500011;stroke-dashoffset:0;stroke-opacity:1;visibility:visible;display:inline;overflow:visible;enable-background:accumulate"
           d="M 448,224 L 576,192 L 576,320 L 448,352 L 448,224 z"
           id="path4049"
           sodipodi:nodetypes="ccccc" />
        <path
           clip-path="url(#clipPath3291)"
           d="M 570.78125,198.6875 L 453.21875,228.0625 L 453.21875,345.3125 L 570.78125,315.9375 L 570.78125,198.6875 z"
           inkscape:href="#path4049"
           id="path2427"
           style="fill:url(#linearGradient3529);fill-opacity:1;fill-rule:nonzero;stroke:none;stroke-width:2;stroke-linecap:butt;stroke-linejoin:miter;marker:none;marker-start:none;marker-mid:none;marker-end:none;stroke-miterlimit:4.00500011;stroke-dashoffset:0;stroke-opacity:1;visibility:visible;display:inline;overflow:visible;filter:url(#filter3275);enable-background:accumulate"
           xlink:href="#path4049"
           inkscape:original="M 576 192 L 448 224 L 448 352 L 576 320 L 576 192 z "
           inkscape:radius="-5.2077703"
           sodipodi:type="inkscape:offset" />
        <path
           sodipodi:nodetypes="ccccc"
           id="path4003"
           d="M 456,228 L 461.59375,335.21875 L 472,232 L 568,200 L 456,228 z"
           style="opacity:0.59247646;fill:#03c7f7;fill-opacity:1;fill-rule:evenodd;stroke:none;stroke-width:1px;stroke-linecap:butt;stroke-linejoin:miter;stroke-opacity:1" />
        <path
           d="M 507.9375,232.4375 C 507.9375,239.25847 504.46433,246.66866 500.8125,252.28125 C 497.16067,257.89384 493.53125,261.59375 493.53125,261.59375 C 493.52062,261.61448 493.5102,261.63531 493.5,261.65625 C 488.2457,267.23816 484.21995,274.18379 483.9375,282.3125 C 483.93674,282.35416 483.93674,282.39584 483.9375,282.4375 C 483.9375,297.54674 496.26576,309.875 511.375,309.875 C 526.48424,309.875 538.8125,297.54674 538.8125,282.4375 C 538.89583,273.86555 534.36787,267.24077 529.28125,261.6875 C 529.26093,261.65591 529.24009,261.62466 529.21875,261.59375 C 529.21875,261.59375 525.58933,257.89384 521.9375,252.28125 C 518.28567,246.66866 514.8125,239.25847 514.8125,232.4375 L 507.9375,232.4375 z"
           id="path3898"
           style="opacity:0.80877745;fill:#ffffff;fill-opacity:1;fill-rule:nonzero;stroke:none;marker:none;marker-start:none;marker-mid:none;marker-end:none;stroke-opacity:1;visibility:visible;display:inline;overflow:visible;filter:url(#filter3894);enable-background:accumulate"
           inkscape:original="M 511.375 232.4375 C 511.375 248.302 496 264 496 264 C 491.11958 269.18472 487.62047 275.37295 487.375 282.4375 C 487.375 295.6855 498.127 306.4375 511.375 306.4375 C 524.623 306.4375 535.375 295.6855 535.375 282.4375 C 535.44652 275.08002 531.60585 269.30133 526.75 264 C 526.75 264 511.375 248.302 511.375 232.4375 z "
           inkscape:radius="3.4399788"
           sodipodi:type="inkscape:offset" />
        <path
           sodipodi:nodetypes="cscscsc"
           id="rect4245"
           d="M 511.375,232.4375 C 511.375,248.302 496,264 496,264 C 491.11958,269.18472 487.62047,275.37295 487.375,282.4375 C 487.375,295.6855 498.127,306.4375 511.375,306.4375 C 524.623,306.4375 535.375,295.6855 535.375,282.4375 C 535.44652,275.08002 531.60585,269.30133 526.75,264 C 526.75,264 511.375,248.302 511.375,232.4375 z"
           style="fill:#ffffff;fill-opacity:1;fill-rule:nonzero;stroke:none;marker:none;marker-start:none;marker-mid:none;marker-end:none;stroke-opacity:1;visibility:visible;display:inline;overflow:visible;enable-background:accumulate" />
      </g>
    </g>
    <g
       id="g3483"
       transform="translate(-128,-16)">
      <path
         style="fill:url(#linearGradient3531);fill-opacity:1;fill-rule:nonzero;stroke:#000000;stroke-width:2;stroke-linecap:butt;stroke-linejoin:miter;marker:none;marker-start:none;marker-mid:none;marker-end:none;stroke-miterlimit:4.00500011;stroke-dashoffset:0;stroke-opacity:1;visibility:visible;display:inline;overflow:visible;enable-background:accumulate"
         d="M 128,288 L 192,272 L 256,256 L 256,384 L 192,400 L 128,416 L 128,288 z"
         id="use2411"
         sodipodi:nodetypes="ccccccc" />
      <path
         style="opacity:0.53291536;fill:#fff900;fill-opacity:1;fill-rule:nonzero;stroke:none;stroke-width:1;marker:none;marker-start:none;marker-mid:none;marker-end:none;stroke-opacity:1;visibility:visible;display:inline;overflow:visible;enable-background:accumulate"
         d="M 256,264.0625 C 243.27356,267.6215 225.64426,272.63404 207.53125,277.78125 C 193.30652,282.8353 176.68909,288.68996 161.71875,294 C 159.21683,295.03216 157.4178,295.77894 157.4375,295.875 C 189.16647,285.94445 231.94382,272.69576 256,265.09375 L 256,264.0625 z M 157.4375,295.875 C 157.34047,295.90537 157.22177,295.93846 157.125,295.96875 C 157.32877,295.95129 157.44678,295.92024 157.4375,295.875 z M 157.125,295.96875 C 156.91695,295.98657 156.51907,296.0064 156.125,296 C 153.88398,296.79758 151.08745,297.76552 149.125,298.46875 C 151.42492,297.74692 154.63884,296.74694 157.125,295.96875 z M 149.125,298.46875 C 140.56452,301.15547 132.87343,303.58541 128,305.15625 L 128,305.875 C 130.03012,305.18579 135.13168,304.23956 135.03125,303.75 C 134.99966,303.59596 140.7018,301.48716 149.125,298.46875 z M 156.125,296 C 157.82908,295.39352 159.88828,294.64927 161.71875,294 C 167.53825,291.59919 178.70055,287.20088 190.21875,282.6875 C 196.23184,280.98139 201.23729,279.56982 207.53125,277.78125 C 220.08054,273.32248 230.10132,269.7205 230.0625,269.53125 C 230.02446,269.34583 221.48215,271.69387 210.375,274.78125 C 218.041,271.74419 223.84775,269.3906 223.8125,269.21875 C 223.74214,268.87572 189.76006,277.34912 157.34375,285.4375 C 163.02313,283.39601 167.99998,281.62168 173.8125,279.53125 C 167.2884,281.71332 159.9166,284.14067 152.15625,286.71875 C 149.70151,287.33102 147.70306,287.84185 145.3125,288.4375 C 141.53332,288.82725 134.91328,289.65889 128,290.5625 L 128,293.1875 C 130.58689,292.91536 133.01867,292.66462 134.65625,292.5625 C 132.27086,293.35521 130.31189,294.01195 128,294.78125 L 128,299.375 C 136.27816,297.19208 144.49785,295.05984 144.5625,295.375 C 144.56678,295.39587 144.73873,295.34523 145.03125,295.28125 C 149.32127,295.58279 153.90278,295.9639 156.125,296 z M 173.8125,279.53125 C 186.77876,275.19451 196.81769,271.77137 196.78125,271.59375 C 196.72616,271.32521 185.85831,275.19907 173.8125,279.53125 z M 249.125,285.15625 C 245.31709,285.71375 186.24843,303.75792 186.125,303.15625 C 186.0527,302.8038 169.46396,308.25485 154.5,313.125 C 159.24292,312.37083 164.71022,311.47726 168.59375,310.90625 C 158.52166,314.11192 151.37217,316.42762 151.40625,316.59375 C 151.45287,316.82099 160.41096,313.96096 170.84375,310.59375 C 170.20189,310.6721 169.56961,310.7457 168.6875,310.875 C 196.73887,301.94786 249.40617,285.61289 249.3125,285.15625 C 249.30847,285.13659 249.24784,285.13827 249.125,285.15625 z M 170.84375,310.59375 C 172.02567,310.44948 172.88535,310.36687 172.90625,310.46875 C 172.97901,310.82344 149.07444,318.48733 128,325.28125 L 128,333.09375 C 130.41414,332.4434 132.30577,331.97111 132.34375,332.15625 C 132.35986,332.2348 130.764,332.72469 128,333.5 L 128,340.28125 C 137.96175,337.66754 164.8949,329.67519 165,330.1875 C 165.06955,330.52655 150.82825,335.33658 137.5625,339.8125 C 176.304,328.14772 224.23408,313.78568 224.15625,313.40625 C 224.02787,312.78043 158.87798,329.1864 158.75,328.5625 C 158.62154,327.93628 136.78419,331.12372 136.65625,330.5 C 136.52773,329.87357 160.09662,325.93588 159.96875,325.3125 C 159.84018,324.68572 184.00281,320.40434 183.875,319.78125 C 183.74635,319.15415 193.47151,310.65402 193.34375,310.03125 C 193.21504,309.40372 138.65896,326.56003 138.53125,325.9375 C 138.40245,325.30959 213.19013,297.87221 213.0625,297.25 C 212.9807,296.85128 188.9625,304.74588 170.84375,310.59375 z M 137.5625,339.8125 C 134.247,340.81077 131.12191,341.7455 128,342.6875 L 128,343.0625 C 131.00414,342.03661 134.10835,340.97795 137.5625,339.8125 z M 154.5,313.125 C 150.02884,313.83596 146.20249,314.41294 146.15625,314.1875 C 146.06984,313.76629 135.30832,318.03264 128,320.78125 L 128,322.0625 C 130.0343,320.91803 131.73738,320.00491 131.78125,320.21875 C 131.83728,320.49188 142.73567,316.95381 154.5,313.125 z M 205.78125,285.9375 C 203.21605,286.31332 180.86029,292.29887 160.4375,297.75 C 176.85206,293.52272 206.12254,286.3825 206.03125,285.9375 C 206.02718,285.91767 205.93385,285.91514 205.78125,285.9375 z M 160.4375,297.75 C 156.45825,298.77479 153.03879,299.68697 151.21875,300.21875 C 154.30453,299.3988 157.12576,298.63395 160.4375,297.75 z M 151.21875,300.21875 C 140.45307,303.07939 130.71291,305.64247 128,306.21875 L 128,306.59375 C 133.33424,305.67313 139.85439,304.49816 146.46875,303.3125 C 147.26567,302.71625 147.88179,302.2167 147.84375,302.03125 C 147.71402,301.3988 149.59534,301.46089 149.46875,300.84375 C 149.45536,300.77846 150.14698,300.5319 151.21875,300.21875 z M 146.46875,303.3125 C 144.60928,304.70375 141.50302,306.71392 141.59375,307.15625 C 141.66113,307.48468 134.65345,308.66835 128,309.8125 L 128,317.28125 C 131.03807,316.73246 133.83662,316.20743 133.78125,315.9375 C 133.65182,315.30652 165.72065,300.80614 165.59375,300.1875 C 165.53717,299.91169 156.37994,301.53587 146.46875,303.3125 z M 137.75,294.90625 C 137.32417,295.00038 137.03736,295.06105 137.03125,295.03125 C 137.01645,294.95908 137.29706,294.91663 137.75,294.90625 z M 245.6875,312.03125 C 245.63425,311.77167 211.33927,322.76793 173.3125,335 C 173.89153,334.89587 174.32188,334.83088 174.34375,334.9375 C 174.47203,335.56281 173.12177,335.96869 173.25,336.59375 C 173.3783,337.21916 169.68438,337.90666 169.8125,338.53125 C 169.82815,338.60751 168.00967,339.22483 164.9375,340.25 C 171.37491,338.5729 176.61095,337.20308 182.78125,335.59375 C 198.50594,330.64234 209.49803,327.21303 209.53125,327.375 C 209.55162,327.47431 206.07464,328.88769 201.34375,330.75 C 228.57127,323.63071 250.72862,317.79421 250.6875,317.59375 C 250.55934,316.96907 245.81583,312.65676 245.6875,312.03125 z M 201.34375,330.75 C 195.46734,332.28653 189.20009,333.9196 182.78125,335.59375 C 167.46705,340.4159 147.90111,346.6207 128,352.9375 L 128,353.65625 C 138.2434,351.4617 145.96408,349.85615 146,350.03125 C 146.04732,350.26193 138.3903,352.64235 129.5,355.375 C 129.79675,355.68197 136.65795,354.44384 142.5625,353.40625 C 165.21818,344.7216 189.02156,335.60062 201.34375,330.75 z M 142.5625,353.40625 C 141.17499,353.93813 140.01953,354.35211 138.65625,354.875 C 142.73032,353.97158 146.37419,353.1725 150.6875,352.21875 C 150.15112,352.09559 146.5225,352.71037 142.5625,353.40625 z M 150.6875,352.21875 C 150.73102,352.22874 150.74601,352.23055 150.75,352.25 C 150.77115,352.35312 150.16689,352.81925 149.34375,353.4375 C 151.68292,352.86912 153.48365,352.44869 155.84375,351.875 C 153.01267,352.81642 150.69053,353.58529 147.9375,354.5 C 148.5287,354.07872 148.91391,353.76034 149.34375,353.4375 C 142.59158,355.07816 136.74952,356.51052 130.59375,358 C 129.73449,358.33018 128.83914,358.67729 128,359 L 128,361.125 C 134.0037,359.1395 140.97748,356.83336 147.90625,354.53125 C 142.72625,358.22046 132.31071,365.0967 132.40625,365.5625 C 132.41764,365.61802 132.54333,365.68214 132.6875,365.75 C 138.71515,364.62676 144.88327,363.45768 149.375,362.59375 C 146.00969,364.00174 142.30247,365.54843 138.34375,367.1875 C 140.30425,367.62752 142.07146,368.02026 142.125,368.28125 C 142.19673,368.63094 148.15746,365.02855 153.5625,361.78125 C 157.39303,361.02208 160.24099,360.42094 160.21875,360.3125 C 160.1775,360.11145 158.36002,360.15506 156.125,360.25 C 157.34003,359.52749 158.56688,358.79286 159.46875,358.28125 C 158.32486,358.78967 156.55584,359.55837 154.78125,360.3125 C 150.18543,360.53937 144.42302,360.9177 144.34375,360.53125 C 144.21617,359.90923 174.75376,351.47144 174.625,350.84375 C 174.49839,350.22648 218.11181,337.82845 218.75,337 C 214.78999,337.97239 205.37186,340.07451 194.5,342.5 C 205.36566,339.88266 214.65753,337.65841 218.65625,336.78125 C 218.09442,336.24666 215.67861,335.84726 215.5625,335.28125 C 215.43466,334.65808 238.31609,325.47058 238.1875,324.84375 C 238.1204,324.51662 199.8791,337.24211 163.125,349.46875 C 158.6069,350.46716 155.14676,351.23273 150.6875,352.21875 z M 218.65625,336.78125 C 218.71695,336.839 218.76879,336.90802 218.78125,336.96875 C 220.30398,336.59449 221.38564,336.33313 221.375,336.28125 C 221.36449,336.23001 220.23869,336.43413 218.65625,336.78125 z M 138.34375,367.1875 C 136.04538,366.67165 133.49021,366.12783 132.6875,365.75 C 131.06005,366.05327 129.67796,366.31321 128,366.625 L 128,371.46875 C 131.67193,369.94769 134.63508,368.72304 138.34375,367.1875 z M 130.59375,358 C 133.26655,356.97296 135.83148,355.95844 138.65625,354.875 C 135.04619,355.67553 131.2881,356.51718 128,357.25 L 128,358.625 C 128.83287,358.42369 129.74266,358.20593 130.59375,358 z M 173.3125,335 C 170.49547,335.5066 162.51262,337.95601 162.40625,337.4375 C 162.34409,337.13444 145.36094,341.24883 128,345.46875 L 128,349.5625 C 143.94437,344.43413 157.30703,340.14848 173.3125,335 z M 164.75,340.3125 C 151.48424,343.76852 140.8985,346.54344 128,349.90625 L 128,352.15625 C 143.17981,347.3124 157.81586,342.62244 164.75,340.3125 z M 256,341.40625 C 237.70298,347.19802 219.01099,353.1036 197.875,359.8125 C 197.86804,359.86203 197.85046,359.92036 197.84375,359.96875 C 218.97684,353.3561 237.95716,347.3819 256,341.71875 L 256,341.40625 z M 197.84375,359.96875 C 183.6185,364.4199 172.34655,367.9731 158.6875,372.25 C 172.06138,368.0102 183.62392,364.33602 197.875,359.8125 C 198.05184,358.55466 198.29001,357.0828 198.46875,355.8125 C 177.67007,361.40997 139.61767,371.96774 128,374.90625 L 128,388.71875 C 131.78492,387.40363 137.03151,385.61507 142.34375,383.8125 C 143.49583,383.36168 144.61842,382.93525 145.8125,382.46875 C 146.73201,382.2131 147.42567,382.03649 148.34375,381.78125 C 152.33613,380.43022 155.47643,379.32004 159.46875,377.96875 C 157.45218,378.44998 155.73853,378.8791 153.65625,379.375 C 174.92018,371.08448 197.72657,362.2178 197.65625,361.875 C 197.61927,361.69471 197.71323,360.90959 197.84375,359.96875 z M 159.46875,377.96875 C 160.509,377.7205 161.45292,377.49279 162.46875,377.25 C 165.58794,376.08286 168.59525,374.97094 171.375,373.9375 C 167.64114,375.21213 163.73608,376.52437 159.46875,377.96875 z M 171.375,373.9375 C 180.71852,370.74789 188.22851,368.13743 188.1875,367.9375 C 188.14802,367.74503 180.67505,370.47997 171.375,373.9375 z M 162.46875,377.25 C 160.34248,378.04561 158.60252,378.70812 156.40625,379.53125 C 163.96021,377.43376 171.91634,375.18901 177.75,373.59375 C 173.58334,374.60504 167.64274,376.0134 162.46875,377.25 z M 156.40625,379.53125 C 153.55213,380.32375 151.27364,380.96669 148.34375,381.78125 C 146.19328,382.50897 144.39349,383.11697 142.34375,383.8125 C 137.04585,385.88563 131.80089,387.92274 128,389.4375 L 128,389.8125 C 129.05281,389.52214 129.94048,389.29073 130.90625,389.03125 C 138.10731,386.37356 147.16674,382.99411 156.40625,379.53125 z M 130.90625,389.03125 C 129.8462,389.42248 128.95005,389.74592 128,390.09375 L 128,390.5 C 129.69224,390.38863 130.94639,390.32851 130.96875,390.4375 C 130.98982,390.54022 133.55933,389.91967 137.03125,389.0625 C 136.34986,388.5819 135.81849,388.18151 135.78125,388 C 135.73661,387.78238 133.51417,388.33056 130.90625,389.03125 z M 137.03125,389.0625 C 137.47348,389.37441 137.96474,389.73914 138.5,390.09375 C 176.59867,379.79347 211.02373,370.45554 210.96875,370.1875 C 210.8636,369.67492 155.1644,384.5857 137.03125,389.0625 z M 138.5,390.09375 C 134.78312,391.09864 131.79381,391.91243 128,392.9375 L 128,396.40625 C 135.6527,394.35116 141.75942,392.66702 141.71875,392.46875 C 141.65211,392.1439 140.0357,391.11113 138.5,390.09375 z M 198.46875,355.8125 C 204.12819,354.2894 208.35186,353.18263 210.5625,352.65625 C 206.89293,353.0169 198.55753,353.20622 198.65625,353.6875 C 198.69674,353.88489 198.61532,354.77082 198.46875,355.8125 z M 210.5625,352.65625 C 211.60988,352.55331 212.34124,352.42136 212.3125,352.28125 C 212.30243,352.23217 211.58339,352.41316 210.5625,352.65625 z M 129.375,355.34375 C 129.18311,355.34378 128.6906,355.48127 128,355.65625 L 128,355.84375 C 128.50996,355.6873 128.96957,355.52843 129.46875,355.375 C 129.46476,355.35554 129.43449,355.34374 129.375,355.34375 z M 161.875,357.0625 C 161.64389,357.09281 160.72209,357.59419 159.5625,358.25 C 161.09184,357.56922 161.95363,357.1724 161.9375,357.09375 C 161.93352,357.07433 161.91573,357.05716 161.875,357.0625 z M 256,364.71875 C 254.02042,365.30534 251.41477,366.09495 249.3125,366.71875 C 251.79189,366.01111 253.69281,365.47243 256,364.8125 L 256,364.71875 z M 249.3125,366.71875 C 225.8141,373.42543 195.52249,382.01568 164.90625,390.6875 C 196.31916,380.603 216.0017,374.55348 216.46875,374.0625 C 215.61083,373.9251 191.95453,380.22971 139,394.0625 C 154.61955,390.5166 166.55835,387.85871 166.59375,388.03125 C 166.64838,388.29757 148.40857,394.35024 128,401.0625 L 128,402.8125 C 141.26693,398.86872 153.56932,395.21224 168.125,390.875 C 166.21682,391.26485 164.59543,391.58772 162.59375,392 C 182.83311,386.18668 201.51878,380.82438 216.0625,376.625 C 227.36494,373.25965 239.8451,369.52798 249.3125,366.71875 z M 216.0625,376.625 C 199.77107,381.47584 185.5173,385.69252 168.125,390.875 C 173.13013,389.85242 177.51533,389.02007 177.5625,389.25 C 187.30383,387.26134 194.38633,385.8505 200.28125,384.6875 C 224.19449,375.9369 244.78125,368.31249 244.78125,368.3125 C 244.78125,368.3125 232.29163,371.93897 216.0625,376.625 z M 200.28125,384.6875 C 191.66046,387.84212 183.70259,390.76001 174.59375,394.0625 C 190.51816,389.46769 204.53349,385.68024 211.75,383.5625 C 195.58323,388.45173 178.83705,393.51984 161.375,398.8125 C 165.65568,397.27125 169.86961,395.75551 174.28125,394.15625 C 162.37628,397.59371 149.45868,401.46017 137.65625,405.375 C 141.83887,404.33961 145.17729,403.49825 149.1875,402.5 C 141.79574,404.74159 135.40639,406.6581 128,408.90625 L 128,410.65625 C 135.35843,408.12666 145.09607,404.63433 155.40625,400.9375 C 173.22566,396.49086 188.34375,392.6875 188.34375,392.6875 C 271.4782,371.10286 263.99459,371.36872 181.3125,393.5625 C 212.17143,384.15609 236.10901,376.83007 256,370.75 L 256,370.1875 C 243.47708,373.96472 229.18273,378.2789 214.5,382.71875 C 219.75301,381.07087 216.40881,381.50572 200.28125,384.6875 z M 137.65625,405.375 C 134.27959,406.21088 131.37454,406.91952 128,407.75 L 128,408.6875 C 131.11136,407.58247 134.32141,406.48116 137.65625,405.375 z M 139,394.0625 C 135.72354,394.80631 131.62814,395.76612 128,396.59375 L 128,396.96875 C 131.96416,395.93501 135.32907,395.02142 139,394.0625 z M 153.6875,367.53125 C 152.09119,367.67832 140.52543,370.37173 128,373.28125 L 128,374.5 C 128.9573,374.2342 129.83196,373.99508 130.21875,373.9375 C 129.4073,374.15269 128.66937,374.37725 128,374.5625 L 128,374.625 C 129.54768,374.28966 130.57581,374.03362 130.5625,373.96875 C 130.55454,373.92997 130.43646,373.91112 130.25,373.9375 C 138.80706,371.66892 153.99931,367.9849 153.90625,367.53125 C 153.90227,367.51185 153.81447,367.51955 153.6875,367.53125 z M 192.09375,369.84375 C 190.86049,370.06404 185.54076,371.4737 178.125,373.5 C 186.67003,371.42407 192.40704,369.99991 192.375,369.84375 C 192.37106,369.82452 192.27327,369.81168 192.09375,369.84375 z"
         id="rect3209" />
      <path
         id="path3433"
         d="M 171.5625,344.1875 C 171.5625,344.1875 141.875,358.71874 141.875,358.71875 C 141.875,358.71875 134.56428,351.42618 128,344.875 L 128,366.53125 C 137.71647,373.98606 148.25,382.0625 148.25,382.0625 C 148.25,382.0625 169.15626,365.93751 169.15625,365.9375 C 169.15625,365.9375 190.96874,386.71875 190.96875,386.71875 C 190.96875,386.71875 221.96875,371.15624 221.96875,371.15625 C 221.96875,371.15625 228.96979,381.23466 234.59375,389.34375 L 256,384 L 256,368.4375 C 253.08984,371.42688 249.09375,375.53125 249.09375,375.53125 C 249.09375,375.53125 220.87501,346.93749 220.875,346.9375 C 220.875,346.9375 199.03126,373.24999 199.03125,373.25 C 199.03125,373.25 171.5625,344.18749 171.5625,344.1875 z"
         style="opacity:0.24137932;fill:#ffffff;fill-opacity:1;fill-rule:evenodd;stroke:none;stroke-width:1px;stroke-linecap:butt;stroke-linejoin:miter;stroke-opacity:1" />
      <path
         id="path3700"
         d="M 173.28125,283.34375 C 173.28125,283.34375 142.28126,298.90626 142.28125,298.90625 C 142.28125,298.90625 137.95872,292.67604 133.71875,286.5625 L 128,288 L 128,307.53125 C 135.63056,315.27003 143.375,323.12499 143.375,323.125 C 143.375,323.125 165.21876,296.81249 165.21875,296.8125 C 165.21875,296.8125 192.6875,325.87499 192.6875,325.875 C 192.6875,325.875 222.375,311.34374 222.375,311.34375 C 222.375,311.34375 244.90625,333.8125 244.90625,333.8125 C 244.90625,333.8125 250.58152,330.02597 256,326.40625 L 256,306.5 C 253.12947,309.87342 249.71875,313.87499 249.71875,313.875 C 249.71875,313.875 216,288 216,288 C 216,288 195.09376,304.125 195.09375,304.125 C 195.09375,304.125 173.28125,283.34376 173.28125,283.34375 z"
         style="opacity:0.24137932;fill:#ffffff;fill-opacity:1;fill-rule:evenodd;stroke:none;stroke-width:1px;stroke-linecap:butt;stroke-linejoin:miter;stroke-opacity:1" />
      <path
         transform="translate(460,0)"
         clip-path="url(#clipPath3381)"
         id="rect3344"
         d="M -448,192 L -448,448 L -64,448 L -64,192 L -448,192 z M -204,256 L -204,384 L -268,400 L -332,416 L -332,288 L -268,272 L -204,256 z"
         style="opacity:1;fill:#000000;fill-opacity:1;fill-rule:nonzero;stroke:none;marker:none;marker-start:none;marker-mid:none;marker-end:none;stroke-opacity:1;visibility:visible;display:inline;overflow:visible;filter:url(#filter3479);enable-background:accumulate" />
      <path
         style="fill:#ffffff;fill-opacity:1;fill-rule:evenodd;stroke:none;stroke-width:1px;stroke-linecap:butt;stroke-linejoin:miter;stroke-opacity:1"
         d="M 144,326.40585 L 201.59651,345.61166 L 143.965,403.33409 L 240,345.59415 L 182.40349,326.38834 L 240.035,268.66591 L 144,326.40585 z"
         id="path3207"
         sodipodi:nodetypes="ccccccc" />
      <path
         d="M 239.78125,267.03125 C 239.57098,267.06484 239.3693,267.13914 239.1875,267.25 L 143.15625,325 C 142.59934,325.32402 142.28445,325.94472 142.3519,326.58549 C 142.41935,327.22626 142.85658,327.76779 143.46875,327.96875 L 198.5625,346.34375 L 142.8125,402.1875 C 142.2207,402.77062 142.15988,403.70469 142.67105,404.35964 C 143.18223,405.01458 144.1031,405.18245 144.8125,404.75 L 240.84375,347 C 241.40066,346.67598 241.71555,346.05528 241.6481,345.41451 C 241.58065,344.77374 241.14342,344.23221 240.53125,344.03125 L 185.4375,325.65625 L 241.1875,269.8125 C 241.69433,269.31319 241.8204,268.54359 241.49937,267.90867 C 241.17835,267.27376 240.48381,266.91907 239.78125,267.03125 z"
         id="path3238"
         style="fill:#ffffff;fill-opacity:1;fill-rule:evenodd;stroke:none;stroke-width:1px;stroke-linecap:butt;stroke-linejoin:miter;stroke-opacity:1;filter:url(#filter3336)"
         inkscape:original="M 240.03125 268.65625 L 144 326.40625 L 201.59375 345.625 L 143.96875 403.34375 L 240 345.59375 L 182.40625 326.375 L 240.03125 268.65625 z "
         inkscape:radius="1.6359973"
         sodipodi:type="inkscape:offset" />
    </g>
    <path
       sodipodi:type="inkscape:offset"
       inkscape:radius="-15.567568"
       inkscape:original="M 0 0 L 0 144 L 384 48 L 384 0 L 0 0 z "
       xlink:href="#path3699"
       style="fill:#ffffff;fill-opacity:1;fill-rule:evenodd;stroke:#000000;stroke-width:1px;stroke-linecap:butt;stroke-linejoin:miter;stroke-opacity:1"
       id="path2450"
       inkscape:href="#path3699"
       d="M 15.5625,15.5625 L 15.5625,124.0625 L 60.21875,112.90625 L 449.59375,15.5625 L 15.5625,15.5625 z" />
    <g
       id="g2478"
       transform="translate(104.74905,518.62155)">
      <path
         transform="matrix(7.0593,0,0,7.0593,-25.7781,-33.3041)"
         d="M 3.69895,5.1092 L 3.717387,5.1714992 L 3.747387,5.1878535 L 3.784261,5.120137 L 3.830513,5.1452472 L 3.793639,5.2130661 L 3.8447847,5.2408811 L 3.8829107,5.1708732 L 3.9328044,5.1980661 L 3.8946824,5.268074 L 3.9525997,5.2995346 L 3.9912454,5.2283811 L 4.0289541,5.2489047 L 3.9903084,5.3200582 L 4.0203084,5.3363102 L 4.0333281,5.3838181 L 3.9858281,5.3996527 L 3.9558281,5.3834007 L 3.9185368,5.4519479 L 3.8808281,5.4314282 L 3.9181194,5.362877 L 3.8603044,5.3314124 L 3.8218674,5.4018376 L 3.7719698,5.374751 L 3.8103044,5.3042234 L 3.7591587,5.2764084 L 3.7221784,5.3443336 L 3.6759264,5.3192234 L 3.7129067,5.2511958 L 3.683324,5.2351525 L 3.6203004,5.2536958 L 3.5615524,5.1313888 L 3.69895,5.1092 z"
         style="fill:#c0c0c0"
         id="path15" />
      <path
         transform="matrix(7.0593,0,0,7.0593,-25.7781,-33.3041)"
         d="M 4.31552,4.86031 L 4.2694806,4.9062549 L 4.2694806,4.9404242 L 4.3466696,4.9404242 L 4.3466696,4.9930344 L 4.2694806,4.9930344 L 4.2694806,5.0513769 L 4.3491696,5.0513769 L 4.3491696,5.1081525 L 4.2694806,5.1081525 L 4.2694806,5.1741013 L 4.3504176,5.1741013 L 4.3504176,5.2170226 L 4.2694806,5.2170226 L 4.2694806,5.2510895 L 4.2340633,5.2852588 L 4.197394,5.2510895 L 4.197394,5.2170226 L 4.1193743,5.2170226 L 4.1193743,5.1741013 L 4.197394,5.1741013 L 4.197394,5.1081525 L 4.1171853,5.1081525 L 4.1171853,5.0513769 L 4.197394,5.0513769 L 4.197394,4.9930344 L 4.1201027,4.9930344 L 4.1201027,4.9404242 L 4.197394,4.9404242 L 4.197394,4.9067746 L 4.1509373,4.86031 L 4.2303113,4.750196 L 4.31552,4.86031 z"
         style="fill:#c0c0c0"
         id="1"
         sodipodi:nodetypes="ccccccccccccccccccccccccccccccccc" />
      <path
         transform="matrix(7.0593,0,0,7.0593,-25.7781,-33.3041)"
         d="M 4.86251,5.2613 L 4.7994864,5.2427567 L 4.7699037,5.2588 L 4.806884,5.3267252 L 4.760632,5.3519339 L 4.7236517,5.2839063 L 4.672506,5.3118276 L 4.7108406,5.3823552 L 4.660943,5.4094418 L 4.6226123,5.3389142 L 4.564695,5.3704811 L 4.6019863,5.4390283 L 4.5642776,5.4595519 L 4.5269863,5.3908984 L 4.4969824,5.4072527 L 4.4494824,5.3913157 L 4.4626084,5.3439141 L 4.4926084,5.3275558 L 4.4538604,5.2565086 L 4.4915691,5.235985 L 4.5302148,5.3071385 L 4.5881321,5.2755716 L 4.5500061,5.2055637 L 4.6000061,5.1784771 L 4.6380258,5.248485 L 4.6892778,5.2205637 L 4.6524038,5.1528472 L 4.6985495,5.1276385 L 4.7354235,5.1954574 L 4.7654235,5.1791031 L 4.7838644,5.1166976 L 4.9212624,5.1389929 L 4.86251,5.2613 z"
         style="fill:#c0c0c0"
         id="12"
         sodipodi:nodetypes="ccccccccccccccccccccccccccccccccc" />
      <path
         transform="matrix(7.0593,0,0,7.0593,-25.7781,-33.3041)"
         d="M 4.80022,5.88835 L 4.784594,5.8251138 L 4.7554247,5.8075075 L 4.715531,5.8735547 L 4.6704247,5.8463657 L 4.7103223,5.7803145 L 4.6604247,5.7501019 L 4.619279,5.8183421 L 4.5706333,5.7889641 L 4.611779,5.7207239 L 4.5554247,5.686657 L 4.5135467,5.7559365 L 4.4768813,5.7337475 L 4.518653,5.664468 L 4.4894837,5.6468617 L 4.4785467,5.5988341 L 4.526779,5.5850821 L 4.5559444,5.6027947 L 4.5963617,5.5359089 L 4.6330271,5.5581018 L 4.5927161,5.6249837 L 4.6490704,5.6590506 L 4.6906334,5.5902908 L 4.7392791,5.6196727 L 4.6977161,5.6884286 L 4.7476137,5.7185388 L 4.7876137,5.6523813 L 4.8326137,5.6795742 L 4.7926137,5.7457277 L 4.821468,5.7632316 L 4.8853223,5.747393 L 4.9384483,5.872306 L 4.80022,5.88835 z"
         style="fill:#c0c0c0"
         id="123"
         sodipodi:nodetypes="ccccccccccccccccccccccccccccccccc" />
      <path
         transform="matrix(7.0593,0,0,7.0593,-25.7781,-33.3041)"
         d="M 4.1775,6.12963 L 4.2239567,6.0831654 L 4.2239567,6.0495158 L 4.1466654,6.0495158 L 4.1466654,5.9969056 L 4.2239567,5.9969056 L 4.2239567,5.9385631 L 4.143748,5.9385631 L 4.143748,5.8817875 L 4.2239567,5.8817875 L 4.2239567,5.8158426 L 4.145937,5.8158426 L 4.145937,5.7729174 L 4.2239567,5.7729174 L 4.2239567,5.7387481 L 4.260626,5.7046812 L 4.2960433,5.7387481 L 4.2960433,5.7729174 L 4.3769803,5.7729174 L 4.3769803,5.8158426 L 4.2960433,5.8158426 L 4.2960433,5.8817875 L 4.3757323,5.8817875 L 4.3757323,5.9385631 L 4.2960433,5.9385631 L 4.2960433,5.9969056 L 4.3732323,5.9969056 L 4.3732323,6.0495158 L 4.2960433,6.0495158 L 4.2960433,6.0836851 L 4.3420827,6.12963 L 4.256874,6.239748 L 4.1775,6.12963 z"
         style="fill:#c0c0c0"
         id="1234"
         sodipodi:nodetypes="ccccccccccccccccccccccccccccccccc" />
      <path
         transform="matrix(7.0593,0,0,7.0593,-25.7781,-33.3041)"
         d="M 3.6401,5.77834 L 3.7053087,5.7871983 L 3.7320804,5.7668833 L 3.6853087,5.7052061 L 3.7271827,5.6734344 L 3.7739544,5.7350013 L 3.820415,5.6997887 L 3.7718717,5.6358241 L 3.8170804,5.6014461 L 3.8656237,5.6654107 L 3.9181237,5.6255091 L 3.8708324,5.5633162 L 3.9049978,5.5373753 L 3.9522891,5.5995682 L 3.9794781,5.5788399 L 4.0288521,5.5873792 L 4.0230214,5.6362414 L 3.9958324,5.6569737 L 4.0447891,5.721458 L 4.0107261,5.7473989 L 3.9616631,5.6829146 L 3.9092694,5.7228122 L 3.9574977,5.786261 L 3.9121867,5.820639 L 3.8639544,5.7571941 L 3.8176001,5.7924067 L 3.8642694,5.8538713 L 3.8223914,5.8857493 L 3.775726,5.8242847 L 3.748537,5.8449107 L 3.7396827,5.9093989 L 3.6005137,5.9081509 L 3.6401,5.77834 z"
         style="fill:#c0c0c0"
         id="12345"
         sodipodi:nodetypes="ccccccccccccccccccccccccccccccccc" />
      <path
         transform="matrix(2.74009e-2,0,0,2.74009e-2,-0.83403,0)"
         id="123456"
         d="M 134.1875,131.40625 L 138.0625,175.75 L 178.5625,197.21875 L 178.5625,150.40625 L 134.1875,131.40625 z M 228.34375,132.0625 L 184,151.0625 L 184,197.90625 L 227.15625,173.71875 L 228.34375,132.0625 z M 229.21875,177.1875 L 188.75,201.125 L 234.15625,224 L 269.6875,196.1875 L 229.21875,177.1875 z M 135.28125,178.21875 L 94.78125,201.125 L 115.09375,210.90625 L 140.53125,224 L 178.5625,201.125 L 135.28125,178.21875 z M 184.875,203.5625 L 185.9375,246.84375 L 236.59375,270.78125 L 231.6875,227.84375 L 184.875,203.5625 z M 178.5625,206.03125 L 140.53125,227.84375 L 138.0625,278.5625 L 181,246.84375 L 179.5625,216.28125 L 178.5625,206.03125 z"
         style="fill:#c0c0c0" />
    </g>
    <path
       style="fill:#001cff;fill-opacity:1;fill-rule:nonzero;stroke:#000000;stroke-width:2;stroke-miterlimit:4;stroke-opacity:1;marker:none;marker-start:none;marker-mid:none;marker-end:none;visibility:visible;display:inline;overflow:visible;enable-background:accumulate"
       d="M 320,128 L 448,96 L 448,224 L 320,256 L 320,128 z"
       id="rect2820"
       sodipodi:nodetypes="ccccc" />
  </g>
</svg>
